<svg width="54" height="55" viewBox="0 0 54 55" fill="none" xmlns="http://www.w3.org/2000/svg">
<mask id="path-1-inside-1_1_631" fill="white">
<path d="M24.7397 0.195618C25.0449 -0.0727541 25.4758 0.00188887 25.8439 0.0360765C26.9301 0.175106 28.0034 0.446897 29.0127 0.88051C29.9216 1.28677 30.7554 1.85714 31.4763 2.55C32.1529 3.19273 32.7724 3.9158 33.1853 4.76479C33.6757 4.19101 34.0875 3.55569 34.4712 2.90441C34.6031 2.70157 34.7495 2.49986 34.9448 2.3557C35.2707 2.15685 35.7129 2.05827 36.0523 2.28163C36.2812 2.41268 36.3682 2.68276 36.5595 2.85427C37.0678 3.34771 37.5986 3.81779 38.154 4.25539C38.526 4.57676 38.8913 4.90724 39.2391 5.25595C39.7424 5.73686 40.1637 6.29639 40.5946 6.84225C40.9307 7.34709 41.2769 7.85079 41.4979 8.42115C42.1106 7.91517 42.7446 7.4337 43.318 6.88043C43.5132 6.67359 43.8044 6.62345 44.0749 6.62858C44.2959 6.6132 44.5159 6.70152 44.6774 6.85308C45.0842 7.22971 45.3659 7.71575 45.6862 8.16474C46.1474 8.92257 46.5974 9.6992 46.8577 10.5556C47.0939 11.1943 47.1915 11.8718 47.2757 12.5453C47.3599 13.6758 47.3324 14.8416 46.9682 15.9236C47.2965 15.882 47.6252 15.8461 47.9529 15.8034C48.6054 15.7088 49.2349 15.4091 49.9042 15.4712C50.2493 15.5669 50.6056 15.7863 50.7167 16.1532C50.8132 16.4262 50.6875 16.7048 50.6908 16.9812C50.6841 17.8239 50.8092 18.6586 50.867 19.4974C50.9574 20.7686 50.908 22.0552 50.6493 23.3047C50.559 23.7053 50.4715 24.1087 50.2998 24.4836C51.1049 24.5565 51.9067 24.6711 52.7157 24.6944C52.9744 24.6916 53.192 24.8591 53.3677 25.0357C53.5186 25.1793 53.6257 25.3771 53.6381 25.5896C53.6583 26.0494 53.5949 26.5087 53.5023 26.9577C53.4148 27.5616 53.233 28.1451 53.0686 28.7303C52.8908 29.2482 52.6585 29.7451 52.4054 30.2288C52.0767 30.855 51.6278 31.4049 51.175 31.9405C50.5242 32.6322 49.8072 33.2858 48.9504 33.7012C49.5149 34.2037 50.1438 34.6225 50.7913 35.006C51.0477 35.1929 51.3338 35.3969 51.4337 35.7182C51.5521 36.0043 51.5706 36.3535 51.3955 36.6213C51.2654 36.847 51.0107 36.9433 50.8384 37.1285C50.4574 37.5262 50.1023 37.9484 49.7612 38.382C48.9308 39.447 47.9849 40.4241 46.9065 41.2315C46.4128 41.5728 45.9168 41.9187 45.3602 42.1495C45.7614 42.6612 46.1553 43.1791 46.5828 43.6685C46.7691 43.8948 47.0255 44.0919 47.0861 44.3967C47.1281 44.6794 47.1612 44.999 46.9935 45.2492C46.7343 45.6332 46.3281 45.8725 45.9679 46.1466C45.5213 46.4885 45.0281 46.7585 44.5405 47.0355C43.3455 47.6788 41.9989 48.0218 40.6474 48.0497C39.748 48.077 38.8301 48.003 37.9745 47.7027C38.0216 48.1221 38.0452 48.5454 38.1366 48.9585C38.2331 49.5232 38.4632 50.073 38.4149 50.6559C38.3235 51.114 37.9532 51.5864 37.4493 51.5454C36.5932 51.3938 35.7274 51.567 34.8713 51.628C33.9057 51.7135 32.9306 51.7408 31.9656 51.6388C31.1442 51.5499 30.3144 51.4155 29.5491 51.0884C29.4565 51.9135 29.3566 52.7391 29.328 53.5693C29.3202 53.8228 29.1575 54.0331 28.9897 54.2057C28.8433 54.3624 28.6402 54.4724 28.4242 54.4775C27.9871 54.4929 27.5506 54.4354 27.1242 54.343C25.6481 54.0872 24.1949 53.555 22.9898 52.6365C21.9658 51.8502 21.0418 50.8855 20.456 49.7158C20.1699 50.1032 19.8467 50.4639 19.6043 50.8833C19.3255 51.3146 19.1168 51.82 18.6932 52.1305C18.3784 52.3197 17.9599 52.42 17.6249 52.2234C17.4157 52.1157 17.3085 51.8964 17.1654 51.7203C16.6807 51.2006 16.1241 50.7585 15.5748 50.3123C14.8393 49.677 14.1222 49.0104 13.5191 48.2411C12.9777 47.575 12.4795 46.8611 12.14 46.0657C11.4886 46.5882 10.849 47.1243 10.2291 47.6844C10.0091 47.8571 9.71626 47.8594 9.45144 47.8531C9.11537 47.8286 8.8629 47.5637 8.66204 47.3135C7.70263 46.0583 6.89246 44.6463 6.54461 43.0839C6.3084 41.8879 6.23939 40.6464 6.45372 39.4418C6.49411 39.1404 6.57378 38.8458 6.68599 38.5649C6.14906 38.627 5.60764 38.6777 5.08249 38.8128C4.64206 38.9153 4.19546 39.068 3.7382 39.0099C3.40549 38.9108 3.06212 38.7034 2.94655 38.3512C2.85117 38.092 2.94318 37.8196 2.96001 37.5558C2.96843 36.3541 2.71988 35.1678 2.73727 33.9655C2.71427 33.0864 2.80965 32.2083 2.95833 31.3428C3.05539 30.8904 3.15358 30.4345 3.34097 30.01C2.53641 29.9229 1.73242 29.8163 0.922812 29.7884C0.721953 29.7867 0.543537 29.6761 0.393734 29.5502C0.200731 29.4043 0.0385852 29.1958 0.0094102 28.9462C-0.0377186 28.3713 0.103107 27.8061 0.18951 27.2426C0.486309 25.7651 1.04176 24.3132 1.98321 23.1332C2.73222 22.1896 3.61757 21.3213 4.69648 20.7794C4.40978 20.564 4.13823 20.3287 3.85097 20.115C3.45655 19.8449 3.04024 19.609 2.64806 19.3355C2.33555 19.1105 2.13357 18.743 2.11786 18.3532C2.10272 18.0734 2.23793 17.7908 2.46348 17.6296C2.59364 17.5373 2.72605 17.4461 2.83321 17.3264C3.10532 17.0324 3.38137 16.7413 3.63496 16.4302C4.18199 15.7037 4.78513 15.0216 5.42193 14.3755C5.63233 14.1641 5.85731 13.9698 6.09127 13.7869C6.75332 13.2086 7.48045 12.6957 8.28052 12.3362C7.8558 11.7926 7.44286 11.2382 6.98223 10.7254C6.82626 10.5345 6.61642 10.3693 6.562 10.1146C6.50477 9.79948 6.4784 9.43139 6.69497 9.16872C7.07705 8.70947 7.59939 8.40805 8.07629 8.06332C8.63454 7.72429 9.18214 7.35678 9.79481 7.12487C10.7138 6.71405 11.7097 6.5112 12.7084 6.44511C13.7059 6.39782 14.7327 6.4434 15.6803 6.78983C15.6135 6.35109 15.595 5.90494 15.4952 5.47133C15.3942 4.92604 15.1782 4.38873 15.2292 3.8252C15.3179 3.47877 15.5255 3.12151 15.875 2.99843C16.1067 2.9084 16.3541 2.97393 16.5903 3.00299C17.4875 3.03718 18.3756 2.8708 19.2694 2.81781C20.001 2.78875 20.736 2.74772 21.4665 2.82749C22.3597 2.92037 23.2714 3.03718 24.1035 3.39956C24.1781 2.59103 24.2864 1.78534 24.3116 0.972816C24.3105 0.657721 24.5271 0.400744 24.7397 0.195618ZM25.9909 1.84916C25.928 2.70043 25.8371 3.55056 25.7115 4.39442C26.599 5.11635 27.2762 6.09867 27.6454 7.1904C27.9187 8.14309 27.9321 9.16131 27.7846 10.1368C28.9415 10.2018 30.0927 10.3778 31.2126 10.681C31.1891 10.2206 31.1857 9.75732 31.2182 9.29692C31.2659 8.62912 31.5049 8.00064 31.6862 7.36361C31.7681 7.0998 31.956 6.85479 31.9095 6.5642C31.8388 5.7454 31.3888 5.01835 30.8575 4.4212C30.2027 3.68446 29.4357 3.03376 28.5465 2.60983C27.9562 2.29645 27.3049 2.13804 26.6664 1.96312C26.4436 1.90956 26.217 1.87936 25.9909 1.84916ZM35.6102 4.36992C35.2242 5.06222 34.7013 5.6605 34.2075 6.2736C33.9584 6.57445 33.7952 6.93342 33.6123 7.27587C33.3732 7.73512 33.2436 8.23825 33.0888 8.72941C32.9951 9.0616 32.9328 9.40518 32.9238 9.75105C32.9132 10.2758 32.9182 10.8149 33.0961 11.3146C34.3175 11.7869 35.4783 12.4257 36.5483 13.1869C36.6156 13.045 36.6829 12.8963 36.8069 12.7955C37.2193 12.4832 37.451 11.9869 37.6176 11.5054C37.7557 11.1522 37.5997 10.7567 37.7703 10.412C37.9251 9.96814 38.4912 9.76586 38.8912 9.99606C39.2329 10.2006 39.4338 10.6029 39.4304 11.0023C39.4338 11.8764 39.0786 12.7117 38.5956 13.4205C38.4149 13.7402 38.1321 13.9801 37.8482 14.2017C37.9672 14.3077 38.0856 14.4137 38.2023 14.5225C38.6713 14.2746 39.0321 13.8672 39.3889 13.4809C40.3113 12.3829 40.4358 10.7744 40.0061 9.43937C39.8591 8.85761 39.5112 8.36303 39.1841 7.87358C38.8037 7.39096 38.4317 6.89581 37.9829 6.47474C37.2445 5.71235 36.3699 5.10837 35.6102 4.36992ZM17.1076 4.74713C17.3203 5.50723 17.3584 6.30095 17.4403 7.08271C17.4863 7.61888 17.6833 8.12429 17.8527 8.62912C18.1018 9.1596 18.3481 9.69863 18.6921 10.1738C19.1308 10.6952 19.6077 11.2086 20.2209 11.5185C20.4179 11.4262 20.6283 11.3334 20.8516 11.3641C21.287 11.3983 21.65 11.812 21.6326 12.2553C21.6326 12.6091 21.3986 12.9413 21.0743 13.0661C20.3309 13.3784 19.6156 13.7573 18.9294 14.184C18.6371 14.3743 18.2354 14.3835 17.9498 14.1761C17.5885 13.9362 17.4656 13.4063 17.681 13.0268C17.8353 12.7225 18.1748 12.608 18.439 12.4279C18.0194 12.0536 17.6333 11.6405 17.2782 11.2023C16.8372 10.5744 16.5034 9.87697 16.1937 9.17499C16.1101 9.02228 15.9625 8.91972 15.8301 8.81374C15.1265 8.34138 14.267 8.2052 13.4389 8.18127C12.4318 8.18184 11.4123 8.33568 10.4827 8.74308C9.79032 9.02114 9.16811 9.44792 8.55263 9.86672C9.09125 10.5305 9.62537 11.2 10.1337 11.8883C11.6059 11.7339 13.169 12.102 14.3214 13.0729C14.8073 13.498 15.25 13.9749 15.6326 14.498C15.8099 14.3168 16.0343 14.1595 16.2958 14.1573C16.7362 14.1214 17.1587 14.4837 17.2002 14.9299C17.2428 15.2387 17.0992 15.5436 16.8709 15.7419C15.6337 16.8575 14.5688 18.172 13.7475 19.6313C13.1729 20.6478 12.7426 21.7435 12.379 22.8534C11.9734 24.3155 11.7192 25.8335 11.758 27.3565C11.7765 28.3086 11.8253 29.267 12.0278 30.1998C12.2438 31.3832 12.6321 32.5268 13.095 33.6328C13.307 34.088 13.5545 34.5256 13.7968 34.965C14.8247 36.8413 16.2891 38.4601 18.0048 39.7102C18.6876 40.2367 19.4299 40.6777 20.1979 41.064C20.6344 41.2868 21.0788 41.5033 21.5518 41.6338C22.9409 42.2332 24.4479 42.5216 25.9521 42.5831C26.3056 42.6139 26.6596 42.66 27.0148 42.6515C27.5405 42.6218 28.0656 42.5814 28.5902 42.5352C30.0035 42.4253 31.3826 42.0287 32.6932 41.4925C32.8879 41.4224 33.0125 41.2333 33.2094 41.1683C33.3817 41.1113 33.5702 41.1056 33.7295 41.0105C35.5328 40.0811 37.1705 38.7991 38.462 37.2145C39.4899 36.0242 40.2844 34.6425 40.8976 33.1906C40.998 32.9883 40.9251 32.7513 41.0098 32.5445C41.0726 32.3502 41.2612 32.2305 41.3167 32.0328C41.4979 31.451 41.6488 30.8596 41.7796 30.2647C41.8822 29.6687 41.9546 29.0676 42.0096 28.4659C42.0382 28.1149 42.0848 27.7639 42.0646 27.4112C42.0231 26.3075 41.9844 25.1947 41.7369 24.115C41.5495 23.152 41.2404 22.2187 40.8836 21.3082C40.8174 21.1213 40.6485 21.0022 40.5632 20.8273C40.479 20.6637 40.5004 20.4671 40.4089 20.307C38.7633 16.9578 35.8509 14.2695 32.4088 12.9316C32.0469 12.8735 31.7445 12.6502 31.391 12.5641C29.4733 11.9658 27.4384 11.751 25.441 11.9487C24.8497 12.0029 24.3789 11.347 24.5731 10.7852C24.2757 10.726 23.9974 10.5362 23.8813 10.2445C23.7708 10.0194 23.8443 9.767 23.8409 9.5294C23.8039 9.09522 23.6557 8.67699 23.4639 8.29067C23.3399 8.02685 23.0627 7.89238 22.9241 7.63996C22.6946 7.31746 22.7373 6.82516 23.0369 6.56306C23.304 6.30323 23.7219 6.31918 24.049 6.43485C24.5001 6.66448 24.7969 7.10778 25.0427 7.54025C25.4163 8.35448 25.7014 9.27242 25.5156 10.1761C25.68 10.1602 25.8455 10.1482 26.0105 10.1385C26.1906 9.3784 26.1984 8.57215 26.0127 7.81204C25.8461 7.22857 25.5128 6.71291 25.1324 6.25138C24.605 5.67133 23.9385 5.23829 23.2237 4.93801C22.4713 4.69698 21.6831 4.60867 20.8998 4.54428C20.4689 4.51864 20.0386 4.54656 19.6083 4.56194C18.7717 4.58473 17.9464 4.76479 17.1076 4.74713ZM41.9569 10.2895C41.9254 10.371 41.9541 10.4633 41.9541 10.5488C42.0242 11.1225 41.9389 11.7003 41.8424 12.265C41.7689 12.6986 41.595 13.1043 41.4328 13.5094C40.989 14.4342 40.2585 15.1817 39.4675 15.8074C40.2406 16.674 40.9111 17.6307 41.5041 18.6318C42.091 17.9532 42.7816 17.3464 43.5901 16.9561C43.9368 16.7675 44.292 16.5965 44.6483 16.4285C45.0792 16.0752 45.2867 15.5219 45.4309 14.9954C45.7732 13.3681 45.5516 11.6211 44.811 10.1362C44.5405 9.64051 44.2561 9.15277 43.9374 8.68838C43.2815 9.22741 42.6268 9.76871 41.9569 10.2895ZM8.67662 14.094C8.26537 14.3265 7.86814 14.588 7.50009 14.8866C7.18085 15.1692 6.83131 15.4176 6.539 15.731C6.20685 16.0963 5.85899 16.4461 5.54536 16.8284C5.1414 17.335 4.74978 17.8535 4.29477 18.315C5.02526 18.7395 5.64972 19.3179 6.30728 19.8449C6.87283 20.2444 7.50121 20.5509 8.16045 20.7538C9.14903 21.0894 10.247 21.1862 11.2491 20.8518C11.7305 19.6295 12.3482 18.4649 13.0955 17.3897C12.9726 17.347 12.8447 17.3111 12.7387 17.233C12.5648 17.1088 12.4705 16.9014 12.2921 16.7817C11.9869 16.5698 11.6575 16.388 11.3057 16.2689C10.9629 16.1436 10.5831 16.2923 10.2498 16.1225C9.79762 15.9624 9.60461 15.355 9.85877 14.9493C10.0568 14.6564 10.3923 14.4422 10.7503 14.4535C11.4746 14.3937 12.1709 14.6706 12.7937 15.0188C13.2762 15.3071 13.7609 15.6421 14.037 16.1527C14.1497 16.0267 14.2648 15.902 14.3775 15.776C14.2474 15.6114 14.1593 15.4171 14.0185 15.2604C13.6554 14.8336 13.2655 14.4171 12.7858 14.1236C12.1967 13.7966 11.529 13.6285 10.8591 13.6091C10.1073 13.6057 9.35999 13.7789 8.67662 14.094ZM46.2922 17.7697C45.8388 17.8928 45.3827 18.0262 44.9557 18.2261C44.545 18.4506 44.1096 18.6336 43.7321 18.9139C43.2114 19.3338 42.7126 19.8062 42.3861 20.4016C42.9112 21.6369 43.3 22.9321 43.5368 24.2563C43.6905 24.2067 43.8516 24.1748 44.0131 24.201C44.3851 24.2528 44.7554 24.14 45.0999 24.0056C45.3524 23.9076 45.615 23.7942 45.7939 23.5788C46.0195 23.2916 46.3943 23.099 46.7606 23.1628C47.1186 23.2261 47.4075 23.5702 47.4002 23.9417C47.3952 24.1623 47.352 24.3919 47.2286 24.5771C46.9856 24.9377 46.6265 25.1976 46.2596 25.4147C45.4786 25.797 44.6073 26.0762 43.7321 25.9434C43.7416 26.1058 43.7517 26.2693 43.7618 26.4323C44.4872 26.6164 45.2626 26.597 45.9864 26.4118C47.3296 25.9759 48.3585 24.809 48.8203 23.4785C49.0133 22.7737 49.112 22.0466 49.1648 21.3184C49.2545 20.0016 49.011 18.6974 48.9662 17.3846C48.0948 17.6347 47.1809 17.6279 46.2922 17.7697ZM4.63028 22.907C4.04285 23.3759 3.53117 23.9423 3.1014 24.5617C2.81582 24.9372 2.62843 25.3771 2.42252 25.7998C2.13806 26.5337 1.91083 27.2995 1.82106 28.0853C2.6576 28.1531 3.49358 28.2454 4.32394 28.3702C4.40754 28.2784 4.48945 28.185 4.56688 28.0881C4.90576 27.6693 5.34787 27.3565 5.77876 27.0443C6.18497 26.7565 6.65233 26.5787 7.11015 26.397C8.06058 26.1212 9.06656 26.136 10.0394 26.2665C10.104 25.0922 10.3076 23.9286 10.5949 22.7902C10.1017 22.8329 9.60574 22.8079 9.11313 22.7725C8.432 22.6996 7.77164 22.495 7.13035 22.2574C6.89863 22.1817 6.67589 22.025 6.42117 22.0774C5.758 22.1543 5.13972 22.4785 4.63028 22.907ZM46.58 28.0727C45.6739 28.3559 44.7044 28.3576 43.7708 28.242C43.6765 29.4038 43.5452 30.5696 43.2215 31.6921C43.8033 31.6847 44.3913 31.659 44.9658 31.773C45.427 31.851 45.8624 32.03 46.3118 32.1542C46.5424 32.2203 46.7494 32.3553 46.9823 32.414C47.5843 32.4225 48.1672 32.1792 48.6615 31.8436C49.3645 31.3548 49.9643 30.7251 50.4698 30.0317C50.8665 29.5012 51.1436 28.891 51.386 28.2756C51.579 27.6625 51.7316 27.0374 51.8455 26.405C51 26.3309 50.155 26.246 49.3163 26.1144C48.6155 27.0169 47.6477 27.6972 46.58 28.0727ZM6.79877 28.4722C6.44137 28.7337 6.05985 28.9799 5.79672 29.3474C5.49262 29.6602 5.27213 30.0402 5.07688 30.4294C4.84348 30.8129 4.75315 31.2596 4.66114 31.6943C4.51077 32.557 4.42605 33.4345 4.4715 34.3114C4.49282 35.2436 4.67572 36.1644 4.67572 37.0977C5.48814 36.884 6.33028 36.8498 7.16009 36.7501C7.8485 36.6105 8.52346 36.3815 9.14062 36.0379C9.54234 35.8157 9.95359 35.5923 10.2818 35.263C10.6852 34.8795 11.092 34.4755 11.3265 33.9576C11.3315 33.8772 11.2872 33.8049 11.2642 33.7314C10.7946 32.5798 10.463 31.373 10.2487 30.1457C10.0608 30.2505 9.84811 30.3229 9.63154 30.2835C9.31903 30.2271 9.01494 30.3399 8.71702 30.4169C8.38936 30.532 8.0387 30.6625 7.81372 30.9451C7.63025 31.1508 7.38395 31.3331 7.10174 31.3462C6.71741 31.3855 6.33926 31.0904 6.26969 30.7069C6.23378 30.4095 6.26464 30.0801 6.45989 29.8414C6.88349 29.2801 7.53543 28.9599 8.18065 28.7383C8.78827 28.5548 9.44696 28.4061 10.0731 28.5907C10.0602 28.4203 10.0507 28.2494 10.0411 28.079C8.96389 27.8277 7.75761 27.8557 6.79877 28.4722ZM42.6189 33.5758C42.1179 34.8316 41.4839 36.0322 40.7253 37.1467C40.9694 37.2464 41.108 37.4766 41.2903 37.6527C41.618 37.9091 41.9911 38.1108 42.3889 38.2293C42.6997 38.3302 43.0375 38.202 43.3404 38.3421C43.7764 38.4663 44.0165 39.0002 43.8398 39.4207C43.6614 39.8253 43.2136 40.0595 42.7861 40.0481C42.3597 40.0355 41.9254 39.9695 41.5333 39.7928C40.8286 39.513 40.1452 39.0988 39.6868 38.4743C39.5858 38.5928 39.4837 38.7102 39.3799 38.8259C39.4905 39.1142 39.7115 39.3313 39.9113 39.5564C40.3141 39.9797 40.7641 40.3882 41.324 40.5791C41.728 40.7711 42.1774 40.8162 42.6144 40.8731C43.6305 40.9022 44.6859 40.6629 45.5201 40.0509C46.6041 39.3398 47.5186 38.394 48.3288 37.3803C48.6559 36.9649 48.9869 36.5518 49.346 36.1644C48.597 35.7501 47.977 35.1439 47.3065 34.6174C46.7545 34.2521 46.1603 33.9422 45.5252 33.757C45.0713 33.606 44.609 33.4601 44.1282 33.443C43.6232 33.4282 43.107 33.4254 42.6189 33.5758ZM10.6235 37.2048C10.164 37.4948 9.68541 37.7564 9.18382 37.9638C9.08507 38.0082 8.97903 38.0475 8.90385 38.1296C8.57732 38.4612 8.39497 38.9051 8.25246 39.3432C7.95398 40.476 8.02131 41.6748 8.26481 42.8116C8.52626 43.9067 9.08507 44.8953 9.71795 45.8098C9.98669 45.546 10.288 45.3204 10.5775 45.0816C10.9489 44.7848 11.3074 44.4691 11.7041 44.2064C11.6143 43.215 11.7058 42.1865 12.0985 41.2669C12.5019 40.1774 13.3435 39.3216 14.2446 38.6356C13.4871 37.7444 12.7931 36.794 12.2449 35.7541C11.7479 36.2829 11.2513 36.8327 10.6235 37.2048ZM14.2788 40.9734C14.0061 41.2891 13.7929 41.6532 13.6577 42.0509C13.2947 43.0361 13.3328 44.146 13.6689 45.1329C13.8299 45.7021 14.1677 46.1956 14.506 46.6696C14.9633 47.2822 15.4643 47.8617 16.031 48.3728C16.6661 48.9904 17.4005 49.4907 18.03 50.114C18.361 49.5431 18.7729 49.0286 19.1852 48.5175C19.9909 47.6092 20.4353 46.4315 20.6698 45.2474C20.7551 44.5534 20.7781 43.8235 20.5469 43.1546C20.2843 43.0469 20.0206 42.9426 19.767 42.8144C18.8424 42.358 17.9324 41.8577 17.111 41.2264C17.056 41.37 17.0038 41.5221 16.8928 41.6327C16.7603 41.7654 16.5988 41.8709 16.4972 42.0332C16.2818 42.3791 16.0658 42.7369 15.9827 43.1432C15.9193 43.4218 16.0164 43.7181 15.9025 43.9882C15.8144 44.313 15.5148 44.5722 15.1793 44.5796C14.6586 44.6241 14.2389 44.0982 14.2311 43.6013C14.175 42.9837 14.3534 42.378 14.6092 41.8247C14.9178 41.2253 15.278 40.6179 15.8537 40.2464C15.7387 40.1381 15.6225 40.0304 15.5069 39.9239C15.0295 40.1831 14.6435 40.574 14.2788 40.9734ZM35.3083 42.1518C35.8627 42.6674 36.385 43.2338 36.7575 43.9022C36.9831 44.3267 37.2288 44.7432 37.3921 45.1984C37.442 45.3586 37.5672 45.4719 37.6917 45.5745C38.3201 46.0867 39.1437 46.2315 39.9258 46.2913C41.195 46.3563 42.4876 46.1152 43.626 45.5323C44.1315 45.2543 44.6365 44.9694 45.0937 44.6133C44.5467 43.958 44.0232 43.2805 43.5071 42.6025C43.2473 42.5956 42.9903 42.6515 42.7311 42.6378C41.8144 42.6082 40.8959 42.3916 40.0874 41.9455C39.3019 41.4936 38.6584 40.8281 38.1013 40.1153C37.2401 40.8868 36.3025 41.5683 35.3083 42.1518ZM29.7382 44.1717C29.8627 44.4184 29.8111 44.693 29.8004 44.9569C29.8784 45.4611 30.0114 45.9813 30.316 46.3973C30.5758 46.6332 30.8502 46.9192 30.8636 47.2964C30.8973 47.705 30.5719 48.0975 30.1719 48.1374C29.8947 48.1522 29.5985 48.0987 29.378 47.9175C28.9302 47.5705 28.6323 47.0651 28.4281 46.5397C28.1638 45.8463 27.9714 45.0856 28.1184 44.3415C27.9557 44.3546 27.793 44.3671 27.6303 44.3802C27.4518 45.1455 27.4496 45.962 27.6493 46.7238C28.0836 48.0862 29.2383 49.1329 30.5545 49.5881C31.6289 49.8873 32.7522 49.9904 33.8636 49.9363C34.7563 49.9049 35.641 49.7499 36.5348 49.7368C36.3031 48.922 36.2857 48.0691 36.1864 47.2326C36.0371 46.4275 35.7505 45.6497 35.3398 44.9443C35.0491 44.3574 34.5986 43.8725 34.12 43.4401C33.9315 43.3022 33.7503 43.1198 33.5242 43.0623C32.3016 43.5517 31.0415 43.97 29.7382 44.1717ZM22.4422 43.8127C22.4551 44.1381 22.468 44.464 22.4461 44.7899C22.4309 45.7802 22.1078 46.7306 21.7616 47.6457C21.6836 47.9255 21.7678 48.2218 21.8474 48.493C22.0977 49.322 22.6801 49.987 23.2748 50.5853C23.7803 51.0514 24.3183 51.4964 24.9417 51.7909C25.7777 52.2553 26.7169 52.4798 27.6482 52.6485C27.7206 51.7932 27.8081 50.9385 27.9304 50.0895C27.3901 49.6645 26.9576 49.1192 26.5811 48.5448C26.1081 47.7796 25.8108 46.8976 25.7855 45.9905C25.7468 45.4491 25.7849 44.9056 25.8534 44.3683C24.7044 44.2731 23.5536 44.1341 22.4422 43.8127Z"/>
</mask>
<path d="M24.7397 0.195618C25.0449 -0.0727541 25.4758 0.00188887 25.8439 0.0360765C26.9301 0.175106 28.0034 0.446897 29.0127 0.88051C29.9216 1.28677 30.7554 1.85714 31.4763 2.55C32.1529 3.19273 32.7724 3.9158 33.1853 4.76479C33.6757 4.19101 34.0875 3.55569 34.4712 2.90441C34.6031 2.70157 34.7495 2.49986 34.9448 2.3557C35.2707 2.15685 35.7129 2.05827 36.0523 2.28163C36.2812 2.41268 36.3682 2.68276 36.5595 2.85427C37.0678 3.34771 37.5986 3.81779 38.154 4.25539C38.526 4.57676 38.8913 4.90724 39.2391 5.25595C39.7424 5.73686 40.1637 6.29639 40.5946 6.84225C40.9307 7.34709 41.2769 7.85079 41.4979 8.42115C42.1106 7.91517 42.7446 7.4337 43.318 6.88043C43.5132 6.67359 43.8044 6.62345 44.0749 6.62858C44.2959 6.6132 44.5159 6.70152 44.6774 6.85308C45.0842 7.22971 45.3659 7.71575 45.6862 8.16474C46.1474 8.92257 46.5974 9.6992 46.8577 10.5556C47.0939 11.1943 47.1915 11.8718 47.2757 12.5453C47.3599 13.6758 47.3324 14.8416 46.9682 15.9236C47.2965 15.882 47.6252 15.8461 47.9529 15.8034C48.6054 15.7088 49.2349 15.4091 49.9042 15.4712C50.2493 15.5669 50.6056 15.7863 50.7167 16.1532C50.8132 16.4262 50.6875 16.7048 50.6908 16.9812C50.6841 17.8239 50.8092 18.6586 50.867 19.4974C50.9574 20.7686 50.908 22.0552 50.6493 23.3047C50.559 23.7053 50.4715 24.1087 50.2998 24.4836C51.1049 24.5565 51.9067 24.6711 52.7157 24.6944C52.9744 24.6916 53.192 24.8591 53.3677 25.0357C53.5186 25.1793 53.6257 25.3771 53.6381 25.5896C53.6583 26.0494 53.5949 26.5087 53.5023 26.9577C53.4148 27.5616 53.233 28.1451 53.0686 28.7303C52.8908 29.2482 52.6585 29.7451 52.4054 30.2288C52.0767 30.855 51.6278 31.4049 51.175 31.9405C50.5242 32.6322 49.8072 33.2858 48.9504 33.7012C49.5149 34.2037 50.1438 34.6225 50.7913 35.006C51.0477 35.1929 51.3338 35.3969 51.4337 35.7182C51.5521 36.0043 51.5706 36.3535 51.3955 36.6213C51.2654 36.847 51.0107 36.9433 50.8384 37.1285C50.4574 37.5262 50.1023 37.9484 49.7612 38.382C48.9308 39.447 47.9849 40.4241 46.9065 41.2315C46.4128 41.5728 45.9168 41.9187 45.3602 42.1495C45.7614 42.6612 46.1553 43.1791 46.5828 43.6685C46.7691 43.8948 47.0255 44.0919 47.0861 44.3967C47.1281 44.6794 47.1612 44.999 46.9935 45.2492C46.7343 45.6332 46.3281 45.8725 45.9679 46.1466C45.5213 46.4885 45.0281 46.7585 44.5405 47.0355C43.3455 47.6788 41.9989 48.0218 40.6474 48.0497C39.748 48.077 38.8301 48.003 37.9745 47.7027C38.0216 48.1221 38.0452 48.5454 38.1366 48.9585C38.2331 49.5232 38.4632 50.073 38.4149 50.6559C38.3235 51.114 37.9532 51.5864 37.4493 51.5454C36.5932 51.3938 35.7274 51.567 34.8713 51.628C33.9057 51.7135 32.9306 51.7408 31.9656 51.6388C31.1442 51.5499 30.3144 51.4155 29.5491 51.0884C29.4565 51.9135 29.3566 52.7391 29.328 53.5693C29.3202 53.8228 29.1575 54.0331 28.9897 54.2057C28.8433 54.3624 28.6402 54.4724 28.4242 54.4775C27.9871 54.4929 27.5506 54.4354 27.1242 54.343C25.6481 54.0872 24.1949 53.555 22.9898 52.6365C21.9658 51.8502 21.0418 50.8855 20.456 49.7158C20.1699 50.1032 19.8467 50.4639 19.6043 50.8833C19.3255 51.3146 19.1168 51.82 18.6932 52.1305C18.3784 52.3197 17.9599 52.42 17.6249 52.2234C17.4157 52.1157 17.3085 51.8964 17.1654 51.7203C16.6807 51.2006 16.1241 50.7585 15.5748 50.3123C14.8393 49.677 14.1222 49.0104 13.5191 48.2411C12.9777 47.575 12.4795 46.8611 12.14 46.0657C11.4886 46.5882 10.849 47.1243 10.2291 47.6844C10.0091 47.8571 9.71626 47.8594 9.45144 47.8531C9.11537 47.8286 8.8629 47.5637 8.66204 47.3135C7.70263 46.0583 6.89246 44.6463 6.54461 43.0839C6.3084 41.8879 6.23939 40.6464 6.45372 39.4418C6.49411 39.1404 6.57378 38.8458 6.68599 38.5649C6.14906 38.627 5.60764 38.6777 5.08249 38.8128C4.64206 38.9153 4.19546 39.068 3.7382 39.0099C3.40549 38.9108 3.06212 38.7034 2.94655 38.3512C2.85117 38.092 2.94318 37.8196 2.96001 37.5558C2.96843 36.3541 2.71988 35.1678 2.73727 33.9655C2.71427 33.0864 2.80965 32.2083 2.95833 31.3428C3.05539 30.8904 3.15358 30.4345 3.34097 30.01C2.53641 29.9229 1.73242 29.8163 0.922812 29.7884C0.721953 29.7867 0.543537 29.6761 0.393734 29.5502C0.200731 29.4043 0.0385852 29.1958 0.0094102 28.9462C-0.0377186 28.3713 0.103107 27.8061 0.18951 27.2426C0.486309 25.7651 1.04176 24.3132 1.98321 23.1332C2.73222 22.1896 3.61757 21.3213 4.69648 20.7794C4.40978 20.564 4.13823 20.3287 3.85097 20.115C3.45655 19.8449 3.04024 19.609 2.64806 19.3355C2.33555 19.1105 2.13357 18.743 2.11786 18.3532C2.10272 18.0734 2.23793 17.7908 2.46348 17.6296C2.59364 17.5373 2.72605 17.4461 2.83321 17.3264C3.10532 17.0324 3.38137 16.7413 3.63496 16.4302C4.18199 15.7037 4.78513 15.0216 5.42193 14.3755C5.63233 14.1641 5.85731 13.9698 6.09127 13.7869C6.75332 13.2086 7.48045 12.6957 8.28052 12.3362C7.8558 11.7926 7.44286 11.2382 6.98223 10.7254C6.82626 10.5345 6.61642 10.3693 6.562 10.1146C6.50477 9.79948 6.4784 9.43139 6.69497 9.16872C7.07705 8.70947 7.59939 8.40805 8.07629 8.06332C8.63454 7.72429 9.18214 7.35678 9.79481 7.12487C10.7138 6.71405 11.7097 6.5112 12.7084 6.44511C13.7059 6.39782 14.7327 6.4434 15.6803 6.78983C15.6135 6.35109 15.595 5.90494 15.4952 5.47133C15.3942 4.92604 15.1782 4.38873 15.2292 3.8252C15.3179 3.47877 15.5255 3.12151 15.875 2.99843C16.1067 2.9084 16.3541 2.97393 16.5903 3.00299C17.4875 3.03718 18.3756 2.8708 19.2694 2.81781C20.001 2.78875 20.736 2.74772 21.4665 2.82749C22.3597 2.92037 23.2714 3.03718 24.1035 3.39956C24.1781 2.59103 24.2864 1.78534 24.3116 0.972816C24.3105 0.657721 24.5271 0.400744 24.7397 0.195618ZM25.9909 1.84916C25.928 2.70043 25.8371 3.55056 25.7115 4.39442C26.599 5.11635 27.2762 6.09867 27.6454 7.1904C27.9187 8.14309 27.9321 9.16131 27.7846 10.1368C28.9415 10.2018 30.0927 10.3778 31.2126 10.681C31.1891 10.2206 31.1857 9.75732 31.2182 9.29692C31.2659 8.62912 31.5049 8.00064 31.6862 7.36361C31.7681 7.0998 31.956 6.85479 31.9095 6.5642C31.8388 5.7454 31.3888 5.01835 30.8575 4.4212C30.2027 3.68446 29.4357 3.03376 28.5465 2.60983C27.9562 2.29645 27.3049 2.13804 26.6664 1.96312C26.4436 1.90956 26.217 1.87936 25.9909 1.84916ZM35.6102 4.36992C35.2242 5.06222 34.7013 5.6605 34.2075 6.2736C33.9584 6.57445 33.7952 6.93342 33.6123 7.27587C33.3732 7.73512 33.2436 8.23825 33.0888 8.72941C32.9951 9.0616 32.9328 9.40518 32.9238 9.75105C32.9132 10.2758 32.9182 10.8149 33.0961 11.3146C34.3175 11.7869 35.4783 12.4257 36.5483 13.1869C36.6156 13.045 36.6829 12.8963 36.8069 12.7955C37.2193 12.4832 37.451 11.9869 37.6176 11.5054C37.7557 11.1522 37.5997 10.7567 37.7703 10.412C37.9251 9.96814 38.4912 9.76586 38.8912 9.99606C39.2329 10.2006 39.4338 10.6029 39.4304 11.0023C39.4338 11.8764 39.0786 12.7117 38.5956 13.4205C38.4149 13.7402 38.1321 13.9801 37.8482 14.2017C37.9672 14.3077 38.0856 14.4137 38.2023 14.5225C38.6713 14.2746 39.0321 13.8672 39.3889 13.4809C40.3113 12.3829 40.4358 10.7744 40.0061 9.43937C39.8591 8.85761 39.5112 8.36303 39.1841 7.87358C38.8037 7.39096 38.4317 6.89581 37.9829 6.47474C37.2445 5.71235 36.3699 5.10837 35.6102 4.36992ZM17.1076 4.74713C17.3203 5.50723 17.3584 6.30095 17.4403 7.08271C17.4863 7.61888 17.6833 8.12429 17.8527 8.62912C18.1018 9.1596 18.3481 9.69863 18.6921 10.1738C19.1308 10.6952 19.6077 11.2086 20.2209 11.5185C20.4179 11.4262 20.6283 11.3334 20.8516 11.3641C21.287 11.3983 21.65 11.812 21.6326 12.2553C21.6326 12.6091 21.3986 12.9413 21.0743 13.0661C20.3309 13.3784 19.6156 13.7573 18.9294 14.184C18.6371 14.3743 18.2354 14.3835 17.9498 14.1761C17.5885 13.9362 17.4656 13.4063 17.681 13.0268C17.8353 12.7225 18.1748 12.608 18.439 12.4279C18.0194 12.0536 17.6333 11.6405 17.2782 11.2023C16.8372 10.5744 16.5034 9.87697 16.1937 9.17499C16.1101 9.02228 15.9625 8.91972 15.8301 8.81374C15.1265 8.34138 14.267 8.2052 13.4389 8.18127C12.4318 8.18184 11.4123 8.33568 10.4827 8.74308C9.79032 9.02114 9.16811 9.44792 8.55263 9.86672C9.09125 10.5305 9.62537 11.2 10.1337 11.8883C11.6059 11.7339 13.169 12.102 14.3214 13.0729C14.8073 13.498 15.25 13.9749 15.6326 14.498C15.8099 14.3168 16.0343 14.1595 16.2958 14.1573C16.7362 14.1214 17.1587 14.4837 17.2002 14.9299C17.2428 15.2387 17.0992 15.5436 16.8709 15.7419C15.6337 16.8575 14.5688 18.172 13.7475 19.6313C13.1729 20.6478 12.7426 21.7435 12.379 22.8534C11.9734 24.3155 11.7192 25.8335 11.758 27.3565C11.7765 28.3086 11.8253 29.267 12.0278 30.1998C12.2438 31.3832 12.6321 32.5268 13.095 33.6328C13.307 34.088 13.5545 34.5256 13.7968 34.965C14.8247 36.8413 16.2891 38.4601 18.0048 39.7102C18.6876 40.2367 19.4299 40.6777 20.1979 41.064C20.6344 41.2868 21.0788 41.5033 21.5518 41.6338C22.9409 42.2332 24.4479 42.5216 25.9521 42.5831C26.3056 42.6139 26.6596 42.66 27.0148 42.6515C27.5405 42.6218 28.0656 42.5814 28.5902 42.5352C30.0035 42.4253 31.3826 42.0287 32.6932 41.4925C32.8879 41.4224 33.0125 41.2333 33.2094 41.1683C33.3817 41.1113 33.5702 41.1056 33.7295 41.0105C35.5328 40.0811 37.1705 38.7991 38.462 37.2145C39.4899 36.0242 40.2844 34.6425 40.8976 33.1906C40.998 32.9883 40.9251 32.7513 41.0098 32.5445C41.0726 32.3502 41.2612 32.2305 41.3167 32.0328C41.4979 31.451 41.6488 30.8596 41.7796 30.2647C41.8822 29.6687 41.9546 29.0676 42.0096 28.4659C42.0382 28.1149 42.0848 27.7639 42.0646 27.4112C42.0231 26.3075 41.9844 25.1947 41.7369 24.115C41.5495 23.152 41.2404 22.2187 40.8836 21.3082C40.8174 21.1213 40.6485 21.0022 40.5632 20.8273C40.479 20.6637 40.5004 20.4671 40.4089 20.307C38.7633 16.9578 35.8509 14.2695 32.4088 12.9316C32.0469 12.8735 31.7445 12.6502 31.391 12.5641C29.4733 11.9658 27.4384 11.751 25.441 11.9487C24.8497 12.0029 24.3789 11.347 24.5731 10.7852C24.2757 10.726 23.9974 10.5362 23.8813 10.2445C23.7708 10.0194 23.8443 9.767 23.8409 9.5294C23.8039 9.09522 23.6557 8.67699 23.4639 8.29067C23.3399 8.02685 23.0627 7.89238 22.9241 7.63996C22.6946 7.31746 22.7373 6.82516 23.0369 6.56306C23.304 6.30323 23.7219 6.31918 24.049 6.43485C24.5001 6.66448 24.7969 7.10778 25.0427 7.54025C25.4163 8.35448 25.7014 9.27242 25.5156 10.1761C25.68 10.1602 25.8455 10.1482 26.0105 10.1385C26.1906 9.3784 26.1984 8.57215 26.0127 7.81204C25.8461 7.22857 25.5128 6.71291 25.1324 6.25138C24.605 5.67133 23.9385 5.23829 23.2237 4.93801C22.4713 4.69698 21.6831 4.60867 20.8998 4.54428C20.4689 4.51864 20.0386 4.54656 19.6083 4.56194C18.7717 4.58473 17.9464 4.76479 17.1076 4.74713ZM41.9569 10.2895C41.9254 10.371 41.9541 10.4633 41.9541 10.5488C42.0242 11.1225 41.9389 11.7003 41.8424 12.265C41.7689 12.6986 41.595 13.1043 41.4328 13.5094C40.989 14.4342 40.2585 15.1817 39.4675 15.8074C40.2406 16.674 40.9111 17.6307 41.5041 18.6318C42.091 17.9532 42.7816 17.3464 43.5901 16.9561C43.9368 16.7675 44.292 16.5965 44.6483 16.4285C45.0792 16.0752 45.2867 15.5219 45.4309 14.9954C45.7732 13.3681 45.5516 11.6211 44.811 10.1362C44.5405 9.64051 44.2561 9.15277 43.9374 8.68838C43.2815 9.22741 42.6268 9.76871 41.9569 10.2895ZM8.67662 14.094C8.26537 14.3265 7.86814 14.588 7.50009 14.8866C7.18085 15.1692 6.83131 15.4176 6.539 15.731C6.20685 16.0963 5.85899 16.4461 5.54536 16.8284C5.1414 17.335 4.74978 17.8535 4.29477 18.315C5.02526 18.7395 5.64972 19.3179 6.30728 19.8449C6.87283 20.2444 7.50121 20.5509 8.16045 20.7538C9.14903 21.0894 10.247 21.1862 11.2491 20.8518C11.7305 19.6295 12.3482 18.4649 13.0955 17.3897C12.9726 17.347 12.8447 17.3111 12.7387 17.233C12.5648 17.1088 12.4705 16.9014 12.2921 16.7817C11.9869 16.5698 11.6575 16.388 11.3057 16.2689C10.9629 16.1436 10.5831 16.2923 10.2498 16.1225C9.79762 15.9624 9.60461 15.355 9.85877 14.9493C10.0568 14.6564 10.3923 14.4422 10.7503 14.4535C11.4746 14.3937 12.1709 14.6706 12.7937 15.0188C13.2762 15.3071 13.7609 15.6421 14.037 16.1527C14.1497 16.0267 14.2648 15.902 14.3775 15.776C14.2474 15.6114 14.1593 15.4171 14.0185 15.2604C13.6554 14.8336 13.2655 14.4171 12.7858 14.1236C12.1967 13.7966 11.529 13.6285 10.8591 13.6091C10.1073 13.6057 9.35999 13.7789 8.67662 14.094ZM46.2922 17.7697C45.8388 17.8928 45.3827 18.0262 44.9557 18.2261C44.545 18.4506 44.1096 18.6336 43.7321 18.9139C43.2114 19.3338 42.7126 19.8062 42.3861 20.4016C42.9112 21.6369 43.3 22.9321 43.5368 24.2563C43.6905 24.2067 43.8516 24.1748 44.0131 24.201C44.3851 24.2528 44.7554 24.14 45.0999 24.0056C45.3524 23.9076 45.615 23.7942 45.7939 23.5788C46.0195 23.2916 46.3943 23.099 46.7606 23.1628C47.1186 23.2261 47.4075 23.5702 47.4002 23.9417C47.3952 24.1623 47.352 24.3919 47.2286 24.5771C46.9856 24.9377 46.6265 25.1976 46.2596 25.4147C45.4786 25.797 44.6073 26.0762 43.7321 25.9434C43.7416 26.1058 43.7517 26.2693 43.7618 26.4323C44.4872 26.6164 45.2626 26.597 45.9864 26.4118C47.3296 25.9759 48.3585 24.809 48.8203 23.4785C49.0133 22.7737 49.112 22.0466 49.1648 21.3184C49.2545 20.0016 49.011 18.6974 48.9662 17.3846C48.0948 17.6347 47.1809 17.6279 46.2922 17.7697ZM4.63028 22.907C4.04285 23.3759 3.53117 23.9423 3.1014 24.5617C2.81582 24.9372 2.62843 25.3771 2.42252 25.7998C2.13806 26.5337 1.91083 27.2995 1.82106 28.0853C2.6576 28.1531 3.49358 28.2454 4.32394 28.3702C4.40754 28.2784 4.48945 28.185 4.56688 28.0881C4.90576 27.6693 5.34787 27.3565 5.77876 27.0443C6.18497 26.7565 6.65233 26.5787 7.11015 26.397C8.06058 26.1212 9.06656 26.136 10.0394 26.2665C10.104 25.0922 10.3076 23.9286 10.5949 22.7902C10.1017 22.8329 9.60574 22.8079 9.11313 22.7725C8.432 22.6996 7.77164 22.495 7.13035 22.2574C6.89863 22.1817 6.67589 22.025 6.42117 22.0774C5.758 22.1543 5.13972 22.4785 4.63028 22.907ZM46.58 28.0727C45.6739 28.3559 44.7044 28.3576 43.7708 28.242C43.6765 29.4038 43.5452 30.5696 43.2215 31.6921C43.8033 31.6847 44.3913 31.659 44.9658 31.773C45.427 31.851 45.8624 32.03 46.3118 32.1542C46.5424 32.2203 46.7494 32.3553 46.9823 32.414C47.5843 32.4225 48.1672 32.1792 48.6615 31.8436C49.3645 31.3548 49.9643 30.7251 50.4698 30.0317C50.8665 29.5012 51.1436 28.891 51.386 28.2756C51.579 27.6625 51.7316 27.0374 51.8455 26.405C51 26.3309 50.155 26.246 49.3163 26.1144C48.6155 27.0169 47.6477 27.6972 46.58 28.0727ZM6.79877 28.4722C6.44137 28.7337 6.05985 28.9799 5.79672 29.3474C5.49262 29.6602 5.27213 30.0402 5.07688 30.4294C4.84348 30.8129 4.75315 31.2596 4.66114 31.6943C4.51077 32.557 4.42605 33.4345 4.4715 34.3114C4.49282 35.2436 4.67572 36.1644 4.67572 37.0977C5.48814 36.884 6.33028 36.8498 7.16009 36.7501C7.8485 36.6105 8.52346 36.3815 9.14062 36.0379C9.54234 35.8157 9.95359 35.5923 10.2818 35.263C10.6852 34.8795 11.092 34.4755 11.3265 33.9576C11.3315 33.8772 11.2872 33.8049 11.2642 33.7314C10.7946 32.5798 10.463 31.373 10.2487 30.1457C10.0608 30.2505 9.84811 30.3229 9.63154 30.2835C9.31903 30.2271 9.01494 30.3399 8.71702 30.4169C8.38936 30.532 8.0387 30.6625 7.81372 30.9451C7.63025 31.1508 7.38395 31.3331 7.10174 31.3462C6.71741 31.3855 6.33926 31.0904 6.26969 30.7069C6.23378 30.4095 6.26464 30.0801 6.45989 29.8414C6.88349 29.2801 7.53543 28.9599 8.18065 28.7383C8.78827 28.5548 9.44696 28.4061 10.0731 28.5907C10.0602 28.4203 10.0507 28.2494 10.0411 28.079C8.96389 27.8277 7.75761 27.8557 6.79877 28.4722ZM42.6189 33.5758C42.1179 34.8316 41.4839 36.0322 40.7253 37.1467C40.9694 37.2464 41.108 37.4766 41.2903 37.6527C41.618 37.9091 41.9911 38.1108 42.3889 38.2293C42.6997 38.3302 43.0375 38.202 43.3404 38.3421C43.7764 38.4663 44.0165 39.0002 43.8398 39.4207C43.6614 39.8253 43.2136 40.0595 42.7861 40.0481C42.3597 40.0355 41.9254 39.9695 41.5333 39.7928C40.8286 39.513 40.1452 39.0988 39.6868 38.4743C39.5858 38.5928 39.4837 38.7102 39.3799 38.8259C39.4905 39.1142 39.7115 39.3313 39.9113 39.5564C40.3141 39.9797 40.7641 40.3882 41.324 40.5791C41.728 40.7711 42.1774 40.8162 42.6144 40.8731C43.6305 40.9022 44.6859 40.6629 45.5201 40.0509C46.6041 39.3398 47.5186 38.394 48.3288 37.3803C48.6559 36.9649 48.9869 36.5518 49.346 36.1644C48.597 35.7501 47.977 35.1439 47.3065 34.6174C46.7545 34.2521 46.1603 33.9422 45.5252 33.757C45.0713 33.606 44.609 33.4601 44.1282 33.443C43.6232 33.4282 43.107 33.4254 42.6189 33.5758ZM10.6235 37.2048C10.164 37.4948 9.68541 37.7564 9.18382 37.9638C9.08507 38.0082 8.97903 38.0475 8.90385 38.1296C8.57732 38.4612 8.39497 38.9051 8.25246 39.3432C7.95398 40.476 8.02131 41.6748 8.26481 42.8116C8.52626 43.9067 9.08507 44.8953 9.71795 45.8098C9.98669 45.546 10.288 45.3204 10.5775 45.0816C10.9489 44.7848 11.3074 44.4691 11.7041 44.2064C11.6143 43.215 11.7058 42.1865 12.0985 41.2669C12.5019 40.1774 13.3435 39.3216 14.2446 38.6356C13.4871 37.7444 12.7931 36.794 12.2449 35.7541C11.7479 36.2829 11.2513 36.8327 10.6235 37.2048ZM14.2788 40.9734C14.0061 41.2891 13.7929 41.6532 13.6577 42.0509C13.2947 43.0361 13.3328 44.146 13.6689 45.1329C13.8299 45.7021 14.1677 46.1956 14.506 46.6696C14.9633 47.2822 15.4643 47.8617 16.031 48.3728C16.6661 48.9904 17.4005 49.4907 18.03 50.114C18.361 49.5431 18.7729 49.0286 19.1852 48.5175C19.9909 47.6092 20.4353 46.4315 20.6698 45.2474C20.7551 44.5534 20.7781 43.8235 20.5469 43.1546C20.2843 43.0469 20.0206 42.9426 19.767 42.8144C18.8424 42.358 17.9324 41.8577 17.111 41.2264C17.056 41.37 17.0038 41.5221 16.8928 41.6327C16.7603 41.7654 16.5988 41.8709 16.4972 42.0332C16.2818 42.3791 16.0658 42.7369 15.9827 43.1432C15.9193 43.4218 16.0164 43.7181 15.9025 43.9882C15.8144 44.313 15.5148 44.5722 15.1793 44.5796C14.6586 44.6241 14.2389 44.0982 14.2311 43.6013C14.175 42.9837 14.3534 42.378 14.6092 41.8247C14.9178 41.2253 15.278 40.6179 15.8537 40.2464C15.7387 40.1381 15.6225 40.0304 15.5069 39.9239C15.0295 40.1831 14.6435 40.574 14.2788 40.9734ZM35.3083 42.1518C35.8627 42.6674 36.385 43.2338 36.7575 43.9022C36.9831 44.3267 37.2288 44.7432 37.3921 45.1984C37.442 45.3586 37.5672 45.4719 37.6917 45.5745C38.3201 46.0867 39.1437 46.2315 39.9258 46.2913C41.195 46.3563 42.4876 46.1152 43.626 45.5323C44.1315 45.2543 44.6365 44.9694 45.0937 44.6133C44.5467 43.958 44.0232 43.2805 43.5071 42.6025C43.2473 42.5956 42.9903 42.6515 42.7311 42.6378C41.8144 42.6082 40.8959 42.3916 40.0874 41.9455C39.3019 41.4936 38.6584 40.8281 38.1013 40.1153C37.2401 40.8868 36.3025 41.5683 35.3083 42.1518ZM29.7382 44.1717C29.8627 44.4184 29.8111 44.693 29.8004 44.9569C29.8784 45.4611 30.0114 45.9813 30.316 46.3973C30.5758 46.6332 30.8502 46.9192 30.8636 47.2964C30.8973 47.705 30.5719 48.0975 30.1719 48.1374C29.8947 48.1522 29.5985 48.0987 29.378 47.9175C28.9302 47.5705 28.6323 47.0651 28.4281 46.5397C28.1638 45.8463 27.9714 45.0856 28.1184 44.3415C27.9557 44.3546 27.793 44.3671 27.6303 44.3802C27.4518 45.1455 27.4496 45.962 27.6493 46.7238C28.0836 48.0862 29.2383 49.1329 30.5545 49.5881C31.6289 49.8873 32.7522 49.9904 33.8636 49.9363C34.7563 49.9049 35.641 49.7499 36.5348 49.7368C36.3031 48.922 36.2857 48.0691 36.1864 47.2326C36.0371 46.4275 35.7505 45.6497 35.3398 44.9443C35.0491 44.3574 34.5986 43.8725 34.12 43.4401C33.9315 43.3022 33.7503 43.1198 33.5242 43.0623C32.3016 43.5517 31.0415 43.97 29.7382 44.1717ZM22.4422 43.8127C22.4551 44.1381 22.468 44.464 22.4461 44.7899C22.4309 45.7802 22.1078 46.7306 21.7616 47.6457C21.6836 47.9255 21.7678 48.2218 21.8474 48.493C22.0977 49.322 22.6801 49.987 23.2748 50.5853C23.7803 51.0514 24.3183 51.4964 24.9417 51.7909C25.7777 52.2553 26.7169 52.4798 27.6482 52.6485C27.7206 51.7932 27.8081 50.9385 27.9304 50.0895C27.3901 49.6645 26.9576 49.1192 26.5811 48.5448C26.1081 47.7796 25.8108 46.8976 25.7855 45.9905C25.7468 45.4491 25.7849 44.9056 25.8534 44.3683C24.7044 44.2731 23.5536 44.1341 22.4422 43.8127Z" fill="#324950" stroke="#EFEDEB" stroke-width="0.6" mask="url(#path-1-inside-1_1_631)"/>
<path d="M28.3049 2.71262L28.305 2.71277L28.3113 2.70947C28.4796 2.6212 28.6767 2.66344 28.854 2.83933C29.0319 3.0158 29.169 3.31334 29.1793 3.6677L29.1791 3.66771L29.1799 3.67641C29.2082 3.99983 29.1249 4.31836 28.9838 4.54771C28.8393 4.78249 28.6586 4.89071 28.5007 4.87785L28.4909 4.87706L28.4812 4.87754C28.3379 4.88454 28.1741 4.79181 28.0368 4.59245C27.902 4.39676 27.8115 4.12134 27.8112 3.82701L27.8114 3.82701L27.811 3.81936C27.798 3.56763 27.8506 3.32033 27.945 3.11942C28.0406 2.91617 28.1718 2.77455 28.3049 2.71262Z" fill="#324950" stroke="#EFEDEB" stroke-width="0.3"/>
<path d="M30.3602 5.23049L30.3601 5.23085L30.3702 5.23423C30.4926 5.27496 30.5995 5.34767 30.709 5.44017C30.7603 5.48355 30.8101 5.52948 30.8627 5.57787C30.8664 5.58128 30.8701 5.58469 30.8738 5.58812C30.9278 5.6378 30.9846 5.68986 31.0442 5.73909C31.0967 5.79143 31.1512 5.84241 31.2039 5.89159C31.2084 5.8958 31.2129 5.90001 31.2174 5.9042C31.2766 5.95962 31.3334 6.01309 31.387 6.06805C31.4924 6.1761 31.5789 6.28366 31.6355 6.40487C31.7294 6.6853 31.7332 6.97905 31.5624 7.16697L31.5622 7.16679L31.5565 7.17381C31.3515 7.42856 30.9137 7.46932 30.6595 7.25577L30.6598 7.25541L30.6501 7.24852C30.6008 7.21332 30.5618 7.16486 30.5246 7.10146C30.4985 7.057 30.4778 7.01416 30.4547 6.96609C30.442 6.9398 30.4286 6.91194 30.4131 6.88139L30.4061 6.86753L30.3964 6.8554C30.3134 6.75182 30.2158 6.661 30.1202 6.5779C30.0805 6.54341 30.0425 6.51142 30.0056 6.48025C29.9491 6.43262 29.8948 6.3869 29.84 6.33706C29.6642 6.17727 29.5391 6.02328 29.5038 5.82178L29.5043 5.82169L29.5011 5.80956C29.4375 5.56777 29.5699 5.29648 29.808 5.21871C29.9959 5.1653 30.1954 5.16222 30.3602 5.23049Z" fill="#324950" stroke="#EFEDEB" stroke-width="0.3"/>
<path d="M21.6454 5.19675L21.6455 5.19687L21.6514 5.19543C21.8442 5.14876 22.0519 5.20381 22.2139 5.32865C22.3756 5.45337 22.4787 5.63758 22.4777 5.83431L22.4771 5.83431L22.4782 5.84778C22.5086 6.20736 22.1809 6.55898 21.8185 6.55333L21.8185 6.55274L21.8051 6.55372C21.4441 6.58024 21.0979 6.25119 21.1053 5.89227L21.1058 5.89228L21.105 5.87966C21.0851 5.56727 21.3324 5.25919 21.6454 5.19675Z" fill="#324950" stroke="#EFEDEB" stroke-width="0.3"/>
<path d="M38.3605 7.72372L38.3605 7.72384L38.3663 7.72196C38.5636 7.65807 38.7835 7.70485 38.957 7.82912C39.1304 7.95327 39.2426 8.1438 39.2409 8.34996L39.2402 8.34996L39.2414 8.36349C39.2714 8.7288 38.9348 9.08154 38.5665 9.06893L38.5665 9.06841L38.554 9.06902C38.1979 9.08644 37.8618 8.76189 37.8683 8.40856L37.8688 8.40857L37.868 8.39642C37.8494 8.0995 38.0682 7.80534 38.3605 7.72372Z" fill="#324950" stroke="#EFEDEB" stroke-width="0.3"/>
<path d="M14.8393 9.37504L14.8404 9.37507C15.1081 9.38203 15.3609 9.50463 15.5728 9.67275C15.8208 9.883 15.8424 10.2634 15.6277 10.497L15.6276 10.4969L15.6244 10.5007C15.4583 10.6938 15.1507 10.7898 14.874 10.7269C14.5918 10.6072 14.2971 10.6213 14.0346 10.6411C14.0095 10.643 13.9848 10.6449 13.9603 10.6468C13.7131 10.6662 13.4953 10.6832 13.287 10.629L13.2867 10.6289C13.1365 10.5902 12.9888 10.5158 12.8823 10.4187C12.7765 10.3222 12.7204 10.2127 12.7225 10.097L12.7226 10.097L12.7225 10.0908C12.7187 9.93052 12.7977 9.77735 12.9389 9.65238C13.0797 9.52774 13.2732 9.44057 13.4707 9.41483C13.9261 9.37741 14.3844 9.36012 14.8393 9.37504Z" fill="#324950" stroke="#EFEDEB" stroke-width="0.3"/>
<path d="M10.9634 9.40753L10.9634 9.40758L10.967 9.40675C11.2992 9.32999 11.6656 9.37746 11.9502 9.50346C12.2431 9.63312 12.4031 9.82173 12.414 9.99718L12.4146 10.0066L12.4164 10.0159C12.4461 10.1717 12.3606 10.3531 12.1483 10.5063C11.9399 10.6568 11.6355 10.7565 11.3095 10.7451L11.3095 10.7449L11.3008 10.7451C11.0062 10.752 10.7255 10.6677 10.5218 10.5366C10.314 10.4029 10.2117 10.2394 10.2111 10.0954L10.2111 10.087L10.2101 10.0786C10.1957 9.95482 10.2517 9.81691 10.3868 9.68911C10.5213 9.56189 10.7236 9.45682 10.9634 9.40753Z" fill="#324950" stroke="#EFEDEB" stroke-width="0.3"/>
<path d="M23.0911 10.2473L23.0911 10.2473L23.0209 12.5357L22.9761 12.3925C22.9757 12.3926 22.9754 12.3927 22.975 12.3929C22.6642 12.4895 22.2959 12.3436 22.1003 12.0012L22.1004 12.0011L22.098 11.9972C21.978 11.8015 21.9264 11.5489 21.9462 11.2985C21.966 11.0478 22.0561 10.8135 22.2023 10.6512L22.2024 10.6512L22.2061 10.6468C22.309 10.5234 22.4384 10.4516 22.59 10.3969C22.6667 10.3692 22.7466 10.3467 22.8317 10.3234C22.8388 10.3214 22.8459 10.3195 22.853 10.3175C22.9302 10.2964 23.0117 10.274 23.0911 10.2473Z" fill="#324950" stroke="#EFEDEB" stroke-width="0.3"/>
<path d="M44.2685 10.2396L44.2685 10.2398L44.2761 10.2367C44.444 10.167 44.6403 10.2247 44.813 10.4179C44.9848 10.61 45.1096 10.9173 45.1079 11.2686L45.1076 11.2686L45.1081 11.2776C45.1254 11.5918 45.0382 11.8942 44.8985 12.1103C44.7557 12.331 44.5804 12.4327 44.4275 12.4214L44.4181 12.4207L44.4087 12.4212C44.2624 12.4288 44.0953 12.3335 43.9566 12.1292C43.8205 11.9288 43.7308 11.6472 43.7352 11.3478L43.7355 11.3478L43.7351 11.3396C43.7248 11.079 43.785 10.8255 43.8881 10.6246C43.9926 10.421 44.1321 10.2878 44.2685 10.2396Z" fill="#324950" stroke="#EFEDEB" stroke-width="0.3"/>
<path d="M44.4059 15.7726L44.4059 15.7723L44.3972 15.773C44.2281 15.7861 44.0605 15.7312 43.9355 15.6369C43.8095 15.542 43.7402 15.4185 43.7377 15.301L43.7374 15.2913L43.736 15.2817C43.7301 15.2428 43.7372 15.1997 43.7586 15.1404C43.769 15.1115 43.7814 15.0823 43.7958 15.0484L43.7973 15.0449C43.8117 15.011 43.8281 14.9723 43.842 14.9321L43.8484 14.9138L43.8499 14.8944C43.8607 14.7523 43.8493 14.6057 43.8391 14.4733C43.8361 14.4349 43.8332 14.3977 43.831 14.3622C43.8208 14.199 43.8222 14.0553 43.8653 13.9192C43.9328 13.7788 44.0581 13.6516 44.2229 13.591C44.426 13.5237 44.6294 13.573 44.7919 13.6884C44.9564 13.8051 45.0622 13.9777 45.0796 14.1317C45.0831 14.2329 45.0887 14.3312 45.0943 14.4273C45.1095 14.6924 45.1238 14.9416 45.0884 15.1943C45.0209 15.479 44.7604 15.7658 44.4059 15.7726Z" fill="#324950" stroke="#EFEDEB" stroke-width="0.3"/>
<path d="M7.92471 15.2493L7.92484 15.2496L7.93316 15.245C7.95173 15.2346 7.96577 15.2342 7.98574 15.243C8.01171 15.2544 8.04942 15.2842 8.08948 15.3441C8.16917 15.4632 8.23168 15.6627 8.23045 15.8965L8.2303 15.8965L8.23056 15.9032C8.23876 16.1105 8.1952 16.3073 8.12843 16.4446C8.09496 16.5134 8.05907 16.5602 8.02777 16.587C7.99727 16.6131 7.98002 16.6135 7.97433 16.6129L7.96199 16.6117L7.94962 16.6126C7.94381 16.613 7.92699 16.612 7.89801 16.5878C7.86836 16.563 7.83415 16.52 7.80169 16.4565C7.73691 16.3298 7.6921 16.1467 7.69405 15.949L7.69418 15.949L7.69399 15.943C7.68874 15.7707 7.71858 15.6042 7.76847 15.4742C7.82111 15.3369 7.88451 15.2685 7.92471 15.2493Z" fill="#324950" stroke="#EFEDEB" stroke-width="0.3"/>
<path d="M47.5471 21.9603L47.5471 21.9604L47.5501 21.9599C47.7698 21.9221 48.0117 21.9468 48.1968 22.0094C48.2893 22.0408 48.3601 22.079 48.4055 22.1169C48.452 22.1557 48.458 22.1815 48.4585 22.1896L48.4592 22.2021L48.462 22.2143C48.4636 22.221 48.465 22.2352 48.4455 22.2625C48.4243 22.292 48.3836 22.3282 48.3189 22.3634C48.1899 22.4336 47.9963 22.4832 47.7845 22.4797L47.7845 22.4796L47.7782 22.4797C47.5739 22.485 47.3821 22.4406 47.2491 22.3744C47.1823 22.3413 47.1372 22.3061 47.1115 22.2756C47.0865 22.246 47.0862 22.2293 47.0867 22.224L47.0878 22.2123L47.0871 22.2005C47.0865 22.1914 47.0932 22.1478 47.1829 22.0879C47.2663 22.0322 47.3938 21.9836 47.5471 21.9603Z" fill="#324950" stroke="#EFEDEB" stroke-width="0.3"/>
<path d="M6.02196 22.7997L6.02199 22.8001L6.03338 22.7984C6.37096 22.7469 6.72398 22.8082 6.98812 22.9344C7.2625 23.0656 7.39093 23.2383 7.38941 23.384L7.38929 23.3951L7.39081 23.4061C7.4058 23.5147 7.3536 23.6382 7.21188 23.7588C7.07127 23.8785 6.85957 23.9781 6.61266 24.0295L6.599 24.0323L6.5861 24.0376C6.29533 24.1573 6.06288 24.3201 5.84495 24.4728C5.82756 24.4849 5.81027 24.4971 5.79305 24.5091C5.55832 24.6729 5.33243 24.8231 5.04044 24.9233C4.7972 24.9915 4.49774 25.0133 4.22633 24.9777C3.94809 24.9412 3.73008 24.8488 3.61914 24.7183C3.48703 24.5626 3.47432 24.3954 3.54525 24.2283C3.6199 24.0524 3.79083 23.8732 4.03137 23.736L4.0314 23.736L4.03447 23.7342C4.18451 23.6438 4.32544 23.5482 4.4644 23.4539C4.92059 23.1445 5.35555 22.8495 6.02196 22.7997Z" fill="#324950" stroke="#EFEDEB" stroke-width="0.3"/>
<path d="M3.45015 25.3453L3.45018 25.3454L3.45592 25.3435C3.76978 25.2392 4.11691 25.3078 4.39243 25.4941C4.66781 25.6804 4.85726 25.9743 4.87047 26.3037L4.86991 26.3037L4.87155 26.3166C4.94929 26.9277 4.39993 27.5312 3.78471 27.5079L3.78473 27.5074L3.77181 27.508C3.20178 27.5355 2.66602 27.0239 2.66743 26.4546L2.66787 26.4546L2.66702 26.4432C2.63112 25.9582 2.97995 25.4808 3.45015 25.3453Z" fill="#324950" stroke="#EFEDEB" stroke-width="0.3"/>
<path d="M49.5931 27.8336L49.5932 27.8337L49.5974 27.8329C49.933 27.7716 50.2892 27.833 50.5579 27.9669C50.8342 28.1046 50.9747 28.2933 50.9736 28.4641L50.9735 28.4741L50.9748 28.484C50.994 28.6354 50.9023 28.8106 50.6896 28.9572C50.4811 29.1009 50.1829 29.1947 49.8672 29.1846L49.8672 29.1844L49.859 29.1846C49.56 29.1915 49.2752 29.1052 49.0703 28.9718C48.8611 28.8355 48.7612 28.6701 48.765 28.5252L48.7653 28.5161L48.7644 28.5071C48.7522 28.3792 48.8167 28.2354 48.9675 28.1047C49.117 27.9752 49.3378 27.8726 49.5931 27.8336Z" fill="#324950" stroke="#EFEDEB" stroke-width="0.3"/>
<path d="M50.1345 30.0418L50.1343 30.0418L50.1355 30.0493C50.1515 30.1501 50.1155 30.2597 50.0211 30.3802C49.9267 30.5008 49.785 30.6172 49.6242 30.7221L49.6242 30.7221L49.6234 30.7226C49.5215 30.79 49.4226 30.8578 49.3248 30.9249C48.9687 31.1691 48.6256 31.4045 48.1945 31.5804C47.9076 31.6754 47.5513 31.7189 47.2194 31.692C46.8819 31.6646 46.5949 31.5666 46.4256 31.4037L46.4258 31.4035L46.418 31.3969C46.318 31.313 46.2698 31.2246 46.2543 31.1428C46.2388 31.0606 46.2537 30.9718 46.3029 30.8825C46.4028 30.701 46.6442 30.5232 47.0075 30.458L47.0231 30.4552L47.0378 30.4492C47.3197 30.3338 47.5482 30.1712 47.7607 30.0199C47.8045 29.9887 47.8476 29.9581 47.8904 29.9284C48.1438 29.7524 48.3994 29.5991 48.7537 29.5268C49.0992 29.4657 49.4809 29.4625 49.7549 29.5836C50.0056 29.6962 50.1171 29.8801 50.1345 30.0418Z" fill="#324950" stroke="#EFEDEB" stroke-width="0.3"/>
<path d="M5.60785 31.2133L5.60788 31.2133L5.61263 31.2113C5.80453 31.1274 6.02921 31.1537 6.21472 31.2627C6.40009 31.3716 6.5303 31.5535 6.54708 31.7614L6.54667 31.7614L6.54838 31.7724C6.60648 32.1455 6.28663 32.5283 5.91074 32.5348L5.91073 32.5343L5.89906 32.5354C5.5441 32.5694 5.19351 32.2608 5.18265 31.9058L5.18303 31.9058L5.18194 31.8951C5.15292 31.6113 5.33816 31.3202 5.60785 31.2133Z" fill="#324950" stroke="#EFEDEB" stroke-width="0.3"/>
<path d="M45.6325 37.8849L45.6327 37.8852L45.6408 37.8797C45.6634 37.8647 45.6783 37.8649 45.6944 37.8703C45.717 37.878 45.7528 37.9014 45.7929 37.9554C45.873 38.0631 45.9404 38.2535 45.9456 38.4868L45.9454 38.4868L45.9458 38.4931C45.9595 38.705 45.9187 38.9122 45.8518 39.0591C45.8182 39.1328 45.7815 39.184 45.7487 39.2137C45.7166 39.243 45.6983 39.2435 45.6927 39.243L45.6799 39.242L45.6671 39.2431C45.6617 39.2436 45.6458 39.2432 45.6175 39.2202C45.5884 39.1966 45.5544 39.1549 45.5219 39.0926C45.4569 38.9683 45.4111 38.7873 45.4113 38.5907L45.4114 38.5907L45.4112 38.585C45.405 38.417 45.4319 38.2529 45.4787 38.1222C45.5278 37.9852 45.5893 37.9099 45.6325 37.8849Z" fill="#324950" stroke="#EFEDEB" stroke-width="0.3"/>
<path d="M9.03573 38.743L9.03575 38.743L9.03989 38.7416C9.18526 38.6922 9.35266 38.694 9.50296 38.7402C9.65404 38.7866 9.77429 38.8733 9.83871 38.9789L9.8385 38.979L9.84334 38.986C9.94021 39.1263 9.92337 39.312 9.82255 39.493L9.80903 39.5173L9.80511 39.5448C9.78176 39.7086 9.79763 39.8773 9.81148 40.0246C9.81449 40.0566 9.81739 40.0875 9.81979 40.1171C9.83392 40.2922 9.83339 40.4395 9.77672 40.5772C9.70023 40.734 9.54965 40.8731 9.35593 40.9119C9.21508 40.9335 9.06461 40.9084 8.93538 40.8483C8.80447 40.7874 8.70687 40.6961 8.65968 40.5973L8.66004 40.5972L8.65456 40.5876C8.59774 40.4882 8.57292 40.3781 8.56101 40.2526C8.55503 40.1895 8.55248 40.125 8.55007 40.0563C8.5499 40.0513 8.54973 40.0464 8.54955 40.0415C8.54741 39.98 8.54515 39.9149 8.54007 39.8502C8.53921 39.7997 8.53743 39.7526 8.53571 39.7071C8.5327 39.6273 8.52988 39.5525 8.53255 39.473C8.53649 39.3558 8.55281 39.2505 8.59498 39.1537C8.69949 38.9664 8.83398 38.805 9.03573 38.743Z" fill="#324950" stroke="#EFEDEB" stroke-width="0.3"/>
<path d="M9.01954 42.927L9.01957 42.9271L9.02479 42.9253C9.21537 42.8628 9.42823 42.9028 9.59997 43.017C9.77158 43.1311 9.88852 43.3101 9.90086 43.5091L9.90037 43.5092L9.90209 43.5211C9.95661 43.9014 9.61415 44.2849 9.23072 44.2714L9.23074 44.2709L9.2181 44.2715C8.86328 44.2889 8.52735 43.9654 8.533 43.6115L8.53348 43.6115L8.53271 43.5995C8.51368 43.3037 8.72999 43.0104 9.01954 42.927Z" fill="#324950" stroke="#EFEDEB" stroke-width="0.3"/>
<path d="M42.0446 43.7593L42.0446 43.7593L42.0487 43.7586C42.3854 43.6961 42.7434 43.7572 43.0134 43.8914C43.2912 44.0294 43.4319 44.2187 43.4303 44.3898L43.4302 44.3999L43.4315 44.4099C43.4504 44.5612 43.3584 44.7363 43.1454 44.8827C42.9365 45.0263 42.6381 45.1199 42.3223 45.1095L42.3223 45.1093L42.314 45.1095C42.0146 45.1161 41.7296 45.0295 41.5249 44.8957C41.3159 44.7592 41.2169 44.5937 41.2214 44.4489L41.2217 44.4397L41.2209 44.4305C41.2092 44.3032 41.2736 44.1602 41.4233 44.0302C41.5719 43.9013 41.791 43.799 42.0446 43.7593Z" fill="#324950" stroke="#EFEDEB" stroke-width="0.3"/>
<path d="M41.055 44.5409L41.055 44.5409L41.055 44.5409ZM41.055 44.5409C40.9685 44.9171 40.5715 45.1718 40.1644 45.2265C40.0872 45.2297 40.01 45.2333 39.9328 45.2368C39.5359 45.255 39.1385 45.2732 38.7423 45.2478L41.055 44.5409ZM38.4026 43.753L38.4026 43.753L38.405 43.7524C38.4884 43.7332 38.5803 43.731 38.6812 43.7368L38.6812 43.7368L38.6846 43.7369C38.7454 43.739 38.8033 43.7595 38.8902 43.7903L38.8915 43.7908C38.971 43.8189 39.0768 43.8562 39.1974 43.853C39.3335 43.8529 39.474 43.8451 39.6097 43.8377C39.6789 43.8338 39.747 43.8301 39.8125 43.8275C40.0114 43.8195 40.2008 43.8208 40.3852 43.8534C40.5489 43.8936 40.7003 43.9899 40.8 44.1124C40.8998 44.2352 40.9405 44.3737 40.909 44.5063L40.9088 44.5073C40.8421 44.7973 40.5216 45.025 40.151 45.0769C40.0749 45.0801 39.9992 45.0836 39.9238 45.087C39.5279 45.1051 39.1411 45.1228 38.7549 45.0983C38.3683 45.0572 38.0025 44.8382 37.8957 44.5411C37.7852 44.23 38.009 43.8369 38.4026 43.753Z" fill="#324950" stroke="#EFEDEB" stroke-width="0.3"/>
<path d="M14.8773 45.4445L14.8774 45.4446L14.8825 45.4428C15.0751 45.3761 15.2923 45.4154 15.4673 45.5312C15.6421 45.6469 15.7601 45.8291 15.7692 46.0313L15.7687 46.0313L15.7703 46.0437C15.8174 46.4092 15.4992 46.7781 15.1308 46.7833L15.1307 46.7828L15.1184 46.784C14.7561 46.8192 14.4008 46.4969 14.4008 46.1353H14.4013L14.4004 46.1237C14.3775 45.8285 14.5888 45.5328 14.8773 45.4445Z" fill="#324950" stroke="#EFEDEB" stroke-width="0.3"/>
<path d="M22.7257 49.5086C22.6747 49.445 22.6226 49.3799 22.5663 49.3133C22.5212 49.2552 22.4684 49.1935 22.4187 49.1353C22.3858 49.0968 22.3542 49.0598 22.3272 49.0267C22.252 48.9344 22.1867 48.843 22.1374 48.7376L22.1375 48.7375L22.1344 48.7316C22.0052 48.485 21.9347 48.1814 21.9427 47.8809C21.9531 47.5224 22.1597 47.2184 22.3898 47.1219C22.5961 47.04 22.8425 47.0999 23.0075 47.3129L23.0073 47.3131L23.0131 47.3197C23.0547 47.3674 23.0886 47.4304 23.1223 47.5103C23.139 47.5498 23.1546 47.5908 23.1713 47.6348L23.1715 47.6353C23.188 47.6785 23.2056 47.7248 23.2248 47.7701L23.2297 47.7815L23.2363 47.792C23.3468 47.9657 23.4817 48.1193 23.6074 48.2623C23.6459 48.3062 23.6836 48.3491 23.7194 48.3912C23.876 48.5755 24.0106 48.7593 24.0917 48.9946C24.1825 49.2897 24.1865 49.6357 24.0487 49.8628C23.893 50.1018 23.6292 50.1798 23.4017 50.1201C23.2495 50.0644 23.113 49.9532 22.9757 49.8055C22.8873 49.7104 22.8081 49.6115 22.7257 49.5086Z" fill="#324950" stroke="#EFEDEB" stroke-width="0.3"/>
<path d="M31.689 47.9596L31.6891 47.9598L31.6967 47.9565C31.8648 47.8831 32.0617 47.9381 32.2357 48.1292C32.4089 48.3194 32.5359 48.6263 32.5354 48.9789L32.5351 48.9789L32.5356 48.9876C32.5529 49.2909 32.4725 49.5869 32.3403 49.8035C32.2052 50.025 32.0365 50.1348 31.8873 50.1351L31.8775 50.1351L31.8678 50.1364C31.7189 50.1562 31.5464 50.0697 31.4004 49.8673C31.2569 49.6684 31.1601 49.3819 31.1633 49.0739L31.1636 49.0739L31.1632 49.0655C31.1513 48.8058 31.2098 48.5523 31.3114 48.3505C31.4144 48.1459 31.5527 48.0104 31.689 47.9596Z" fill="#324950" stroke="#EFEDEB" stroke-width="0.3"/>
<path d="M24.9483 50.4699L24.9483 50.4701L24.9538 50.4683C25.1519 50.4037 25.3725 50.4504 25.5465 50.5749C25.7203 50.6993 25.8326 50.8903 25.8305 51.0972L25.8299 51.0972L25.831 51.1108C25.8606 51.4759 25.5233 51.8279 25.1554 51.8148L25.1555 51.8143L25.143 51.8149C24.7872 51.8319 24.4513 51.5065 24.4578 51.1528L24.4582 51.1528L24.4575 51.1411C24.4398 50.845 24.6576 50.5525 24.9483 50.4699Z" fill="#324950" stroke="#EFEDEB" stroke-width="0.3"/>
</svg>
