<svg width="1886" height="964" viewBox="0 0 1886 964" fill="none" xmlns="http://www.w3.org/2000/svg">
<path fill-rule="evenodd" clip-rule="evenodd" d="M1108.56 164.447C1108.56 255.269 1033.79 328.894 941.56 328.894C849.326 328.894 774.556 255.269 774.556 164.447C774.556 73.6255 849.326 0 941.56 0C1033.79 0 1108.56 73.6255 1108.56 164.447ZM440.547 235.329C377.2 215.482 310.974 201.306 244.748 195.635C190.894 191.847 135.755 193.12 81.0475 194.382H81.047C53.8544 195.01 26.7685 195.635 0 195.635V246.67C0 643.612 325.371 964 728.486 964H915.646V961.165V856.259V686.141C927.163 445.141 633.466 300.541 440.547 235.329ZM1638.37 195.635C1572.15 201.306 1505.92 215.482 1442.57 235.329C1249.65 300.541 955.957 445.141 970.354 683.306V853.423V958.329V961.165H1157.51C1560.63 961.165 1886 640.776 1886 243.835V195.635C1858.06 195.635 1830.12 195 1802.28 194.368C1746.94 193.11 1692.02 191.862 1638.37 195.635Z" fill="white"/>
</svg>
